<svg version="1.1" viewBox="0.0 0.0 960.0 540.0" fill="none" stroke="none" stroke-linecap="square" stroke-miterlimit="10" xmlns:xlink="http://www.w3.org/1999/xlink" xmlns="http://www.w3.org/2000/svg"><clipPath id="g2c8506a06c1_0_1021.0"><path d="m0 0l960.0 0l0 540.0l-960.0 0l0 -540.0z" clip-rule="nonzero"/></clipPath><g clip-path="url(#g2c8506a06c1_0_1021.0)"><path fill="#000000" d="m0 0l960.0 0l0 540.0l-960.0 0z" fill-rule="evenodd"/><g filter="url(#shadowFilter-g2c8506a06c1_0_1021.1)"><use xlink:href="#g2c8506a06c1_0_1021.1" transform="matrix(1.0 0.0 0.0 1.0 -5.656854330708662 5.656854330708644)"/></g><defs><filter id="shadowFilter-g2c8506a06c1_0_1021.1" filterUnits="userSpaceOnUse"><feGaussianBlur in="SourceAlpha" stdDeviation="1.5" result="blur"/><feComponentTransfer in="blur" color-interpolation-filters="sRGB"><feFuncR type="linear" slope="0" intercept="1.0"/><feFuncG type="linear" slope="0" intercept="1.0"/><feFuncB type="linear" slope="0" intercept="1.0"/><feFuncA type="linear" slope="0.82" intercept="0"/></feComponentTransfer></filter></defs><g id="g2c8506a06c1_0_1021.1"><path fill="#000000" fill-opacity="0.0" d="m119.987404 146.2137l0 0c0 -5.7970886 4.6994705 -10.496567 10.496559 -10.496567l194.05635 0c2.7838745 0 5.453705 1.1058807 7.42218 3.0743713c1.9685059 1.9684906 3.0744019 4.638336 3.0744019 7.4221954l0 247.81789c0 5.7970886 -4.6994934 10.496582 -10.496582 10.496582l-194.05635 0c-5.7970886 0 -10.496559 -4.6994934 -10.496559 -10.496582z" fill-rule="evenodd"/><path stroke="#ffffff" stroke-width="1.0" stroke-linejoin="round" stroke-linecap="butt" d="m119.987404 146.2137l0 0c0 -5.7970886 4.6994705 -10.496567 10.496559 -10.496567l194.05635 0c2.7838745 0 5.453705 1.1058807 7.42218 3.0743713c1.9685059 1.9684906 3.0744019 4.638336 3.0744019 7.4221954l0 247.81789c0 5.7970886 -4.6994934 10.496582 -10.496582 10.496582l-194.05635 0c-5.7970886 0 -10.496559 -4.6994934 -10.496559 -10.496582z" fill-rule="evenodd"/></g><g filter="url(#shadowFilter-g2c8506a06c1_0_1021.2)"><use xlink:href="#g2c8506a06c1_0_1021.2" transform="matrix(1.0 0.0 0.0 1.0 -5.656854330708662 5.656854330708644)"/></g><defs><filter id="shadowFilter-g2c8506a06c1_0_1021.2" filterUnits="userSpaceOnUse"><feGaussianBlur in="SourceAlpha" stdDeviation="3.0" result="blur"/><feComponentTransfer in="blur" color-interpolation-filters="sRGB"><feFuncR type="linear" slope="0" intercept="0.0"/><feFuncG type="linear" slope="0" intercept="1.0"/><feFuncB type="linear" slope="0" intercept="0.0"/><feFuncA type="linear" slope="0.48" intercept="0"/></feComponentTransfer></filter></defs><g id="g2c8506a06c1_0_1021.2"><path fill="#000000" fill-opacity="0.0" d="m121.92 147.6822l0 0c0 -5.700409 4.6210938 -10.321503 10.321503 -10.321503l190.81987 0c2.7374268 0 5.362732 1.0874481 7.298401 3.0231018c1.935669 1.9356537 3.0231018 4.560974 3.0231018 7.298401l0 244.80583c0 5.700409 -4.6210938 10.321503 -10.321503 10.321503l-190.81987 0c-5.700409 0 -10.321503 -4.6210938 -10.321503 -10.321503z" fill-rule="evenodd"/><path fill="#fa9138" d="m159.27254 356.4851l0 -171.79688l23.328125 0l90.23436 134.875l0 -134.875l21.796875 0l0 171.79688l-23.328125 0l-90.23436 -135.0l0 135.0l-21.796875 0z" fill-rule="nonzero"/></g><g filter="url(#shadowFilter-g2c8506a06c1_0_1021.3)"><use xlink:href="#g2c8506a06c1_0_1021.3" transform="matrix(1.0 0.0 0.0 1.0 -5.656854330708644 5.656854330708644)"/></g><defs><filter id="shadowFilter-g2c8506a06c1_0_1021.3" filterUnits="userSpaceOnUse"><feGaussianBlur in="SourceAlpha" stdDeviation="3.0" result="blur"/><feComponentTransfer in="blur" color-interpolation-filters="sRGB"><feFuncR type="linear" slope="0" intercept="0.4"/><feFuncG type="linear" slope="0" intercept="0.4"/><feFuncB type="linear" slope="0" intercept="0.4"/><feFuncA type="linear" slope="0.32" intercept="0"/></feComponentTransfer></filter></defs><g id="g2c8506a06c1_0_1021.3"><path fill="#000000" fill-opacity="0.0" d="m311.9874 133.24481l0 0c0 -8.177948 6.629547 -14.8074875 14.807495 -14.8074875l565.59766 0c3.927185 0 7.6935425 1.5600662 10.470459 4.3370132c2.7769775 2.776947 4.337036 6.543289 4.337036 10.470474l0 273.7551c0 8.177948 -6.6295776 14.807495 -14.807495 14.807495l-565.59766 0c-8.177948 0 -14.807495 -6.629547 -14.807495 -14.807495z" fill-rule="evenodd"/><path fill="#78909c" d="m373.69525 301.3192l21.453125 -1.875q1.515625 12.890625 7.078125 21.15625q5.578125 8.265625 17.296875 13.359375q11.71875 5.09375 26.359375 5.09375q13.015625 0 22.96875 -3.859375q9.96875 -3.875 14.828125 -10.609375q4.859375 -6.734375 4.859375 -14.703125q0 -8.09375 -4.6875 -14.125q-4.6875 -6.03125 -15.46875 -10.140625q-6.90625 -2.6875 -30.578125 -8.375q-23.671875 -5.6875 -33.171875 -10.71875q-12.296875 -6.453125 -18.34375 -15.999985q-6.03125 -9.546875 -6.03125 -21.390625q0 -13.0 7.375 -24.3125q7.390625 -11.3125 21.5625 -17.171875q14.1875 -5.859375 31.53125 -5.859375q19.109375 0 33.6875 6.15625q14.59375 6.15625 22.4375 18.109375q7.859375 11.953125 8.453125 27.0625l-21.796875 1.640625q-1.765625 -16.28125 -11.90625 -24.59375q-10.125 -8.328125 -29.9375 -8.328125q-20.625 0 -30.0625 7.5625q-9.421875 7.546875 -9.421875 18.21875q0 9.25 6.671875 15.234375q6.5625 5.96875 34.28125 12.25q27.71875 6.2656097 38.03125 10.95311q15.0 6.90625 22.140625 17.515625q7.15625 10.609375 7.15625 24.4375q0 13.703125 -7.859375 25.84375q-7.84375 12.125 -22.5625 18.875q-14.703125 6.734375 -33.09375 6.734375q-23.328125 0 -39.09375 -6.796875q-15.75 -6.8125 -24.71875 -20.453125q-8.96875 -13.65625 -9.4375 -30.890625zm300.46875 55.203125l0 -171.79686l34.21875 0l40.671875 121.64061q5.625 16.984375 8.203125 25.421875q2.921875 -9.375 9.140625 -27.53125l41.125 -119.531235l30.593689 0l0 171.79686l-21.921814 0l0 -143.79686l-49.921875 143.79686l-20.5 0l-49.6875 -146.24998l0 146.24998l-21.921875 0z" fill-rule="nonzero"/></g><g filter="url(#shadowFilter-g2c8506a06c1_0_1021.4)"><use xlink:href="#g2c8506a06c1_0_1021.4" transform="matrix(1.0 0.0 0.0 1.0 -4.2426406824147005 4.2426406824147005)"/></g><defs><filter id="shadowFilter-g2c8506a06c1_0_1021.4" filterUnits="userSpaceOnUse"><feGaussianBlur in="SourceAlpha" stdDeviation="2.0" result="blur"/><feComponentTransfer in="blur" color-interpolation-filters="sRGB"><feFuncR type="linear" slope="0" intercept="1.0"/><feFuncG type="linear" slope="0" intercept="1.0"/><feFuncB type="linear" slope="0" intercept="1.0"/><feFuncA type="linear" slope="0.8" intercept="0"/></feComponentTransfer></filter></defs><g id="g2c8506a06c1_0_1021.4"><path fill="#000000" fill-opacity="0.0" d="m575.0274 149.8304l0 0c0 -3.5441132 2.8730469 -6.4171906 6.4171753 -6.4171906l17.874268 0l0 0c1.7019653 0 3.3342285 0.6760864 4.5376587 1.8795471c1.2034912 1.2034607 1.8795776 2.8356934 1.8795776 4.5376434l0 240.58293c0 3.5441284 -2.873108 6.417206 -6.4172363 6.417206l-17.874268 0c-3.5441284 0 -6.4171753 -2.8730774 -6.4171753 -6.417206z" fill-rule="evenodd"/><path stroke="#ffffff" stroke-width="1.0" stroke-linejoin="round" stroke-linecap="butt" d="m575.0274 149.8304l0 0c0 -3.5441132 2.8730469 -6.4171906 6.4171753 -6.4171906l17.874268 0l0 0c1.7019653 0 3.3342285 0.6760864 4.5376587 1.8795471c1.2034912 1.2034607 1.8795776 2.8356934 1.8795776 4.5376434l0 240.58293c0 3.5441284 -2.873108 6.417206 -6.4172363 6.417206l-17.874268 0c-3.5441284 0 -6.4171753 -2.8730774 -6.4171753 -6.417206z" fill-rule="evenodd"/></g><path fill="#ff0000" fill-opacity="0.6" d="m582.7017 145.37775l0 0c0 -0.22174072 0.17974854 -0.40148926 0.40148926 -0.40148926l1.1182861 0l0 0c0.10650635 0 0.20861816 0.042297363 0.2838745 0.11759949c0.07531738 0.075286865 0.117614746 0.17739868 0.117614746 0.28388977l0 249.49625c0 0.22174072 -0.17974854 0.40148926 -0.40148926 0.40148926l-1.1182861 0c-0.22174072 0 -0.40148926 -0.17974854 -0.40148926 -0.40148926z" fill-rule="evenodd"/><path fill="#0097a7" fill-opacity="0.8" d="m594.22174 145.37775l0 0c0 -0.22174072 0.17974854 -0.40148926 0.40148926 -0.40148926l1.1182861 0l0 0c0.10644531 0 0.20861816 0.042297363 0.2838745 0.11759949c0.07531738 0.075286865 0.117614746 0.17739868 0.117614746 0.28388977l0 249.49625c0 0.22174072 -0.17974854 0.40148926 -0.40148926 0.40148926l-1.1182861 0c-0.22174072 0 -0.40148926 -0.17974854 -0.40148926 -0.40148926z" fill-rule="evenodd"/><path fill="#fa9138" fill-opacity="0.8" d="m591.3397 360.95523l0 0c0 -0.6166992 0.49993896 -1.1166382 1.1166382 -1.1166382l5.451782 0c0.29614258 0 0.5802002 0.11764526 0.7895508 0.32705688c0.20941162 0.20941162 0.3270874 0.4934082 0.3270874 0.7895813l0 5.4517517c0 0.6166992 -0.49993896 1.1166382 -1.1166382 1.1166382l-5.451782 0c-0.6166992 0 -1.1166382 -0.49993896 -1.1166382 -1.1166382z" fill-rule="evenodd"/><path fill="#fa9138" fill-opacity="0.8" d="m579.82007 315.6009l0 0c0 -0.6166992 0.49993896 -1.1166382 1.1166382 -1.1166382l5.451721 0c0.2962036 0 0.5802002 0.11764526 0.7896118 0.32705688c0.20941162 0.20941162 0.32702637 0.49343872 0.32702637 0.7895813l0 5.4517517c0 0.6166992 -0.49993896 1.1166382 -1.1166382 1.1166382l-5.451721 0c-0.6166992 0 -1.1166382 -0.49993896 -1.1166382 -1.1166382z" fill-rule="evenodd"/><path fill="#fa9138" fill-opacity="0.8" d="m591.3397 257.635l0 0c0 -0.6166992 0.49993896 -1.1166382 1.1166382 -1.1166382l5.451782 0c0.29614258 0 0.5802002 0.11764526 0.7895508 0.32705688c0.20941162 0.20941162 0.3270874 0.49343872 0.3270874 0.7895813l0 5.4517517c0 0.61672974 -0.49993896 1.1166382 -1.1166382 1.1166382l-5.451782 0c-0.6166992 0 -1.1166382 -0.49990845 -1.1166382 -1.1166382z" fill-rule="evenodd"/><path fill="#fa9138" fill-opacity="0.8" d="m579.82007 200.8686l0 0c0 -0.6166992 0.49993896 -1.1166382 1.1166382 -1.1166382l5.451721 0c0.2962036 0 0.5802002 0.11764526 0.7896118 0.32705688c0.20941162 0.20941162 0.32702637 0.49342346 0.32702637 0.7895813l0 5.451767c0 0.6166992 -0.49993896 1.1166382 -1.1166382 1.1166382l-5.451721 0c-0.6166992 0 -1.1166382 -0.49993896 -1.1166382 -1.1166382z" fill-rule="evenodd"/><g filter="url(#shadowFilter-g2c8506a06c1_0_1021.5)"><use xlink:href="#g2c8506a06c1_0_1021.5" transform="matrix(1.0 0.0 0.0 1.0 -4.2426406824147005 4.2426406824147005)"/></g><defs><filter id="shadowFilter-g2c8506a06c1_0_1021.5" filterUnits="userSpaceOnUse"><feGaussianBlur in="SourceAlpha" stdDeviation="1.0" result="blur"/><feComponentTransfer in="blur" color-interpolation-filters="sRGB"><feFuncR type="linear" slope="0" intercept="1.0"/><feFuncG type="linear" slope="0" intercept="1.0"/><feFuncB type="linear" slope="0" intercept="0.0"/><feFuncA type="linear" slope="0.72" intercept="0"/></feComponentTransfer></filter></defs><g id="g2c8506a06c1_0_1021.5"><path fill="#000000" fill-opacity="0.0" d="m740.156 375.7126l119.04443 0l9.601257 9.601257l0 19.201904l-28.803162 28.803162l-119.04443 0l-9.601257 -9.601257l0 -19.201904z" fill-rule="evenodd"/><path stroke="#ffffff" stroke-width="1.0" stroke-linejoin="round" stroke-linecap="butt" d="m740.156 375.7126l119.04443 0l9.601257 9.601257l0 19.201904l-28.803162 28.803162l-119.04443 0l-9.601257 -9.601257l0 -19.201904z" fill-rule="evenodd"/><path fill="#ffffff" d="m778.2978 399.81573l0 -9.546875l1.296875 0l5.015625 7.5l0 -7.5l1.203125 0l0 9.546875l-1.296875 0l-5.015625 -7.5l0 7.5l-1.203125 0zm9.656372 0l0 -9.546875l6.90625 0l0 1.125l-5.640625 0l0 2.921875l5.28125 0l0 1.125l-5.28125 0l0 3.25l5.859375 0l0 1.125l-7.125 0zm11.2960205 0l0 -8.421875l-3.140625 0l0 -1.125l7.5625 0l0 1.125l-3.15625 0l0 8.421875l-1.265625 0zm7.3757324 0l-2.53125 -9.546875l1.296875 0l1.453125 6.265625q0.234375 0.984375 0.40625 1.953125q0.359375 -1.53125 0.421875 -1.765625l1.828125 -6.453125l1.515625 0l1.375 4.828125q0.515625 1.796875 0.734375 3.390625q0.1875 -0.90625 0.484375 -2.078125l1.484375 -6.140625l1.28125 0l-2.625 9.546875l-1.21875 0l-2.0 -7.265625q-0.265625 -0.921875 -0.3125 -1.125q-0.140625 0.65625 -0.28125 1.125l-2.015625 7.265625l-1.296875 0zm10.532837 -4.640625q0 -2.375 1.28125 -3.71875q1.28125 -1.34375 3.296875 -1.34375q1.3125 0 2.375 0.625q1.0625 0.625 1.609375 1.765625q0.5625 1.125 0.5625 2.5625q0 1.4375 -0.59375 2.59375q-0.578125 1.140625 -1.65625 1.734375q-1.0625 0.578125 -2.3125 0.578125q-1.34375 0 -2.40625 -0.640625q-1.0625 -0.65625 -1.609375 -1.78125q-0.546875 -1.125 -0.546875 -2.375zm1.3125 0.015625q0 1.71875 0.921875 2.71875q0.921875 0.984375 2.328125 0.984375q1.421875 0 2.34375 -1.0q0.921875 -1.0 0.921875 -2.84375q0 -1.15625 -0.40625 -2.03125q-0.390625 -0.875 -1.15625 -1.34375q-0.75 -0.484375 -1.6875 -0.484375q-1.34375 0 -2.3125 0.921875q-0.953125 0.921875 -0.953125 3.078125zm9.460815 4.625l0 -9.546875l4.234375 0q1.265625 0 1.921875 0.265625q0.671875 0.25 1.0625 0.90625q0.40625 0.65625 0.40625 1.4375q0 1.015625 -0.65625 1.71875q-0.65625 0.6875 -2.03125 0.875q0.5 0.25 0.765625 0.484375q0.546875 0.5 1.046875 1.265625l1.65625 2.59375l-1.578125 0l-1.265625 -1.984375q-0.5625 -0.859375 -0.921875 -1.3125q-0.34375 -0.453125 -0.640625 -0.640625q-0.28125 -0.1875 -0.5625 -0.25q-0.21875 -0.046875 -0.703125 -0.046875l-1.46875 0l0 4.234375l-1.265625 0zm1.265625 -5.328125l2.71875 0q0.859375 0 1.34375 -0.171875q0.484375 -0.1875 0.734375 -0.578125q0.265625 -0.390625 0.265625 -0.859375q0 -0.671875 -0.5 -1.109375q-0.484375 -0.4375 -1.546875 -0.4375l-3.015625 0l0 3.15625zm8.281433 5.328125l0 -9.546875l1.265625 0l0 4.734375l4.734375 -4.734375l1.71875 0l-4.0 3.875l4.171875 5.671875l-1.65625 0l-3.40625 -4.828125l-1.5625 1.515625l0 3.3125l-1.265625 0z" fill-rule="nonzero"/><path fill="#ffffff" d="m735.4732 414.68823l1.4375 -0.125q0.09375 0.859375 0.46875 1.421875q0.375 0.546875 1.15625 0.890625q0.78125 0.328125 1.75 0.328125q0.875 0 1.53125 -0.25q0.671875 -0.265625 0.984375 -0.703125q0.328125 -0.453125 0.328125 -0.984375q0 -0.546875 -0.3125 -0.9375q-0.3125 -0.40625 -1.03125 -0.6875q-0.453125 -0.171875 -2.03125 -0.546875q-1.578125 -0.390625 -2.21875 -0.71875q-0.8125 -0.4375 -1.21875 -1.0625q-0.40625 -0.640625 -0.40625 -1.4375q0 -0.859375 0.484375 -1.609375q0.5 -0.765625 1.4375 -1.15625q0.953125 -0.390625 2.109375 -0.390625q1.28125 0 2.25 0.421875q0.96875 0.40625 1.484375 1.203125q0.53125 0.796875 0.578125 1.796875l-1.453125 0.109375q-0.125 -1.078125 -0.796875 -1.625q-0.671875 -0.5625 -2.0 -0.5625q-1.375 0 -2.0 0.5q-0.625 0.5 -0.625 1.21875q0 0.609375 0.4375 1.015625q0.4375 0.390625 2.28125 0.8125q1.859375 0.421875 2.546875 0.734375q1.0 0.453125 1.46875 1.171875q0.484375 0.703125 0.484375 1.625q0 0.90625 -0.53125 1.71875q-0.515625 0.8125 -1.5 1.265625q-0.984375 0.453125 -2.203125 0.453125q-1.5625 0 -2.609375 -0.453125q-1.046875 -0.46875 -1.65625 -1.375q-0.59375 -0.90625 -0.625 -2.0625zm11.453125 3.6875l0 -11.453125l1.515625 0l0 11.453125l-1.515625 0zm4.1328125 0l0 -11.453125l2.28125 0l2.71875 8.109375q0.375 1.125 0.546875 1.6875q0.1875 -0.625 0.609375 -1.828125l2.734375 -7.96875l2.046875 0l0 11.453125l-1.46875 0l0 -9.59375l-3.328125 9.59375l-1.359375 0l-3.3125 -9.75l0 9.75l-1.46875 0zm20.890625 -11.453125l1.515625 0l0 6.609375q0 1.734375 -0.390625 2.75q-0.390625 1.015625 -1.40625 1.65625q-1.015625 0.640625 -2.671875 0.640625q-1.609375 0 -2.640625 -0.5625q-1.015625 -0.5625 -1.453125 -1.609375q-0.4375 -1.046875 -0.4375 -2.875l0 -6.609375l1.515625 0l0 6.609375q0 1.484375 0.265625 2.203125q0.28125 0.703125 0.953125 1.09375q0.6875 0.375 1.65625 0.375q1.671875 0 2.375 -0.75q0.71875 -0.765625 0.71875 -2.921875l0 -6.609375zm3.9765625 11.453125l0 -11.453125l1.515625 0l0 10.09375l5.640625 0l0 1.359375l-7.15625 0zm7.6953125 0l4.40625 -11.453125l1.640625 0l4.6875 11.453125l-1.734375 0l-1.328125 -3.46875l-4.796875 0l-1.25 3.46875l-1.625 0zm3.3125 -4.703125l3.890625 0l-1.203125 -3.171875q-0.546875 -1.453125 -0.8125 -2.375q-0.21875 1.09375 -0.609375 2.1875l-1.265625 3.359375zm10.359375 4.703125l0 -10.109375l-3.78125 0l0 -1.34375l9.078125 0l0 1.34375l-3.78125 0l0 10.109375l-1.515625 0zm6.109375 -5.578125q0 -2.859375 1.53125 -4.46875q1.53125 -1.609375 3.953125 -1.609375q1.578125 0 2.84375 0.765625q1.28125 0.75 1.953125 2.109375q0.671875 1.34375 0.671875 3.0625q0 1.75 -0.703125 3.125q-0.703125 1.375 -2.0 2.09375q-1.28125 0.703125 -2.78125 0.703125q-1.609375 0 -2.890625 -0.78125q-1.265625 -0.796875 -1.921875 -2.140625q-0.65625 -1.359375 -0.65625 -2.859375zm1.5625 0.015625q0 2.078125 1.109375 3.265625q1.109375 1.1875 2.796875 1.1875q1.703125 0 2.8125 -1.203125q1.109375 -1.203125 1.109375 -3.40625q0 -1.40625 -0.484375 -2.4375q-0.46875 -1.046875 -1.375 -1.625q-0.90625 -0.578125 -2.046875 -0.578125q-1.609375 0 -2.765625 1.109375q-1.15625 1.109375 -1.15625 3.6875zm11.3671875 5.5625l0 -11.453125l5.078125 0q1.53125 0 2.328125 0.3125q0.796875 0.296875 1.265625 1.078125q0.484375 0.78125 0.484375 1.734375q0 1.21875 -0.796875 2.0625q-0.78125 0.828125 -2.4375 1.046875q0.609375 0.296875 0.921875 0.578125q0.65625 0.609375 1.25 1.515625l2.0 3.125l-1.90625 0l-1.515625 -2.390625q-0.671875 -1.03125 -1.109375 -1.578125q-0.421875 -0.546875 -0.765625 -0.765625q-0.328125 -0.21875 -0.6875 -0.296875q-0.25 -0.0625 -0.84375 -0.0625l-1.75 0l0 5.09375l-1.515625 0zm1.515625 -6.40625l3.25 0q1.046875 0 1.625 -0.203125q0.59375 -0.21875 0.890625 -0.6875q0.3125 -0.484375 0.3125 -1.03125q0 -0.8125 -0.59375 -1.328125q-0.59375 -0.53125 -1.859375 -0.53125l-3.625 0l0 3.78125z" fill-rule="nonzero"/></g><g filter="url(#shadowFilter-g2c8506a06c1_0_1021.6)"><use xlink:href="#g2c8506a06c1_0_1021.6" transform="matrix(1.0 0.0 0.0 1.0 -5.656854330708662 5.656854330708644)"/></g><defs><filter id="shadowFilter-g2c8506a06c1_0_1021.6" filterUnits="userSpaceOnUse"><feGaussianBlur in="SourceAlpha" stdDeviation="1.5" result="blur"/><feComponentTransfer in="blur" color-interpolation-filters="sRGB"><feFuncR type="linear" slope="0" intercept="1.0"/><feFuncG type="linear" slope="0" intercept="1.0"/><feFuncB type="linear" slope="0" intercept="1.0"/><feFuncA type="linear" slope="0.84" intercept="0"/></feComponentTransfer></filter></defs><g id="g2c8506a06c1_0_1021.6"><path fill="#000000" fill-opacity="0.0" d="m91.2 118.60393l0 0c0 -6.65168 5.39225 -12.04393 12.04393 -12.04393l753.51843 0c3.1942139 0 6.2576294 1.2689133 8.516296 3.527588c2.258728 2.2586746 3.527588 5.32209 3.527588 8.516342l0 302.30585c0 6.651703 -5.392212 12.043945 -12.043884 12.043945l-753.51843 0l0 0c-6.65168 0 -12.04393 -5.3922424 -12.04393 -12.043945z" fill-rule="evenodd"/><path stroke="#ffffff" stroke-width="1.0" stroke-linejoin="round" stroke-linecap="butt" d="m91.2 118.60393l0 0c0 -6.65168 5.39225 -12.04393 12.04393 -12.04393l753.51843 0c3.1942139 0 6.2576294 1.2689133 8.516296 3.527588c2.258728 2.2586746 3.527588 5.32209 3.527588 8.516342l0 302.30585c0 6.651703 -5.392212 12.043945 -12.043884 12.043945l-753.51843 0l0 0c-6.65168 0 -12.04393 -5.3922424 -12.04393 -12.043945z" fill-rule="evenodd"/></g></g></svg>